# xmcd
#
# Track frame offsets: 
#        300
#        21433
#        41329
#        56944
#        86183
#        105457
#        125975
#        151692
#        166705
#        189020
#        205722
#
# Disc length: 3154 seconds
#
# Revision: 6
# Processed by: cddbd v1.5.2PL0 Copyright (c) Steve Scherf et al.
# Submitted via: ExactAudioCopy v1.0b1
#
DISCID=8a0c4e0b
DTITLE=Bernard Allison - Keepin' The Blues Alive
DYEAR=1997
DGENRE=Blues
TTITLE0=Baby Chile
TTITLE1=Tell Me Why
TTITLE2=Walkin'
TTITLE3=Young Boy's Blues
TTITLE4=In The Open
TTITLE5=You Gave Me The Blues
TTITLE6=Home Goin'
TTITLE7=When I'm Lonely
TTITLE8=A Change Must Come
TTITLE9=Rocket 88
TTITLE10=Garbage Man
EXTD=YEAR: 1997
EXTT0=
EXTT1=
EXTT2=
EXTT3=
EXTT4=
EXTT5=
EXTT6=
EXTT7=
EXTT8=
EXTT9=
EXTT10=
PLAYORDER=
